<svg width="24" height="24" viewBox="0 0 24 24" fill="none" xmlns="http://www.w3.org/2000/svg">
<path d="M11.635 7.6L8.39503 14.896L5.17903 7.6H4.21903L7.93903 16H8.81503L12.535 7.6H11.635ZM16.1182 16.072C18.2662 16.072 19.2502 15.016 19.2502 13.78C19.2502 10.72 14.0782 12.112 14.0782 9.808C14.0782 8.968 14.7622 8.284 16.2982 8.284C17.0422 8.284 17.8822 8.512 18.6022 8.98L18.9022 8.272C18.2302 7.804 17.2462 7.528 16.2982 7.528C14.1622 7.528 13.2022 8.596 13.2022 9.832C13.2022 12.94 18.3742 11.524 18.3742 13.828C18.3742 14.656 17.6902 15.316 16.1182 15.316C15.0142 15.316 13.9462 14.884 13.3462 14.296L12.9982 14.98C13.6222 15.628 14.8582 16.072 16.1182 16.072Z" fill="#464851"/>
<rect x="0.5" y="0.5" width="23" height="23" rx="11.5" stroke="#464851"/>
</svg>
