<svg width="27" height="36" viewBox="0 0 27 36" fill="none" xmlns="http://www.w3.org/2000/svg">
<path d="M13.2837 13.0989L0.389423 0C0.216346 0.0879121 0.173077 0.0879121 0 0.175824V9.01099L13.3269 22.5494C13.4567 22.5494 13.5433 22.5494 13.6731 22.5494L20.3365 15.7802V29.6264L26.6106 36C26.7837 35.9121 26.8269 35.9121 27 35.8242V6.24176C26.9135 6.15385 26.8702 6.10989 26.7837 6.02198H20.2933L13.6298 13.0989C13.5 13.0989 13.4567 13.0989 13.2837 13.0989Z" fill="white"/>
<path d="M0.389423 35.9999L8.95673 27.2966L0.389423 18.5933C0.216346 18.6813 0.173077 18.6813 0 18.7692V35.8241C0.173077 35.912 0.216346 35.912 0.389423 35.9999Z" fill="#E8222E"/>
</svg>
